<?xml version="1.0" encoding="UTF-8"?>
<svg width="50px" height="50px" viewBox="0 0 50 50" version="1.1" xmlns="http://www.w3.org/2000/svg" xmlns:xlink="http://www.w3.org/1999/xlink">
    <!-- Generator: Sketch 50.2 (55047) - http://www.bohemiancoding.com/sketch -->
    <title>facebook</title>
    <desc>Created with Sketch.</desc>
    <defs></defs>
    <g id="Page-1" stroke="none" stroke-width="1" fill="none" fill-rule="evenodd">
        <g id="Desktop-HD" transform="translate(-629.000000, -380.000000)" fill="#3D5E96">
            <g id="facebook" transform="translate(629.000000, 380.000000)">
                <path d="M0,-9.2956294e-14 L50.0000015,-2.46378988e-08 L50,50 L34.375,50 L34.375,30.2083333 L40.9830729,30.2083333 L41.9596354,22.9166667 L34.375,22.9166667 L34.375,18.2617187 C34.375,17.0898379 34.6788164,16.1892393 35.2864583,15.5598958 C35.8941003,14.9305524 36.9357565,14.6158854 38.4114583,14.6158854 L42.7083333,14.5833333 L42.7083333,7.84505208 C40.6249896,7.64973861 38.6718841,7.55208333 36.8489583,7.55208333 C33.8975547,7.55208333 31.532127,8.4255555 29.7526042,10.172526 C27.9730814,11.9194966 27.0833333,14.3663037 27.0833333,17.5130208 L27.0833333,22.9166667 L19.7916667,22.9166667 L19.7916667,30.2083333 L27.0833333,30.2083333 L27.0833333,50 L0,50 L0,-9.2956294e-14 Z"></path>
            </g>
        </g>
    </g>
</svg>