<?xml version="1.0" encoding="UTF-8"?>
<svg width="242px" height="120px" viewBox="0 0 242 120" version="1.1" xmlns="http://www.w3.org/2000/svg" xmlns:xlink="http://www.w3.org/1999/xlink">
    <!-- Generator: Sketch 50.2 (55047) - http://www.bohemiancoding.com/sketch -->
    <title>Logo preta</title>
    <desc>Created with Sketch.</desc>
    <defs>
        <polygon id="path-1" points="5.46451978e-06 0.113601327 241.219295 0.113601327 241.219295 106.418919 5.46451978e-06 106.418919"></polygon>
    </defs>
    <g id="Page-1" stroke="none" stroke-width="1" fill="none" fill-rule="evenodd">
        <g id="Desktop-HD" transform="translate(-598.000000, -128.000000)">
            <g id="Logo-preta" transform="translate(598.000000, 128.000000)">
                <g id="Page-1">
                    <g id="Group-3" transform="translate(0.000000, 12.899263)">
                        <mask id="mask-2" fill="white">
                            <use xlink:href="#path-1"></use>
                        </mask>
                        <g id="Clip-2"></g>
                        <path d="M92.8552444,64.615553 C95.7862556,64.615553 98.7175047,64.6198192 101.648516,64.6108127 C102.084599,64.6098646 102.59134,64.7885726 102.653196,64.004296 C102.829961,61.7621513 103.027424,59.5226137 102.858986,57.2728846 C102.602998,53.8553915 101.373734,52.4363936 97.979518,51.9256302 C95.3504104,51.5298181 92.6882338,51.6032922 90.046993,51.9064321 C86.7774405,52.281861 84.882989,54.1805736 84.1133607,57.3212353 C83.5752156,59.5155033 83.4324715,61.757885 83.1626853,63.986994 C83.0744219,64.7162836 83.5143115,64.615553 83.9430194,64.615553 C86.9135232,64.6153159 89.8845027,64.615553 92.8552444,64.615553 M110.667799,84.9595795 C113.759397,84.9595795 116.851233,84.9354041 119.942118,84.9764074 C120.71365,84.986599 120.939423,84.7559851 120.987956,83.9882994 C121.130224,81.7449697 121.319836,79.5011659 121.605086,77.2715829 C121.735221,76.2540853 121.564642,75.9578188 120.450287,75.9623221 C108.797852,76.0092507 97.1447032,75.9864974 85.4920303,75.9995331 C84.3945665,76.0009552 83.0318366,75.5558444 82.2733898,76.1936469 C81.604396,76.7560792 81.9928978,78.1399992 81.8508674,79.1539416 C81.8346898,79.2710261 81.8149435,79.3883476 81.8080442,79.5061432 C81.6633969,82.0220381 81.1606999,84.51992 81.4321515,87.0569091 C81.7114541,89.6657132 83.0189896,91.0913475 85.6238307,91.6376629 C88.0193138,92.1401308 90.445249,91.9204196 92.8538169,91.8884228 C97.2408175,91.8298806 99.2849123,90.1331032 100.213462,85.8519341 C100.383804,85.0667094 100.705216,84.9418035 101.393242,84.9477288 C104.484602,84.9747483 107.576201,84.9595795 110.667799,84.9595795 M196.716531,81.3787843 C196.8519,82.5392009 196.744604,83.8814065 197.010584,85.2082063 C197.554914,87.9229553 198.944766,89.2270018 201.738981,89.5128397 C203.673162,89.7109827 205.615909,89.6946288 207.552946,89.5268235 C210.466352,89.2748785 212.425752,87.8134552 213.213937,84.9572093 C213.517744,83.8577052 213.793716,82.7427952 213.973335,81.6176936 C214.732734,76.8594169 214.948277,72.0449682 215.41172,67.2558798 C215.666518,64.6202932 215.82306,61.9820995 215.410768,59.3446168 C215.059856,57.100339 213.98761,55.8583899 211.770795,55.3627953 C209.268254,54.8039182 206.726934,54.8816586 204.212021,55.2620647 C201.662613,55.6476852 200.017963,57.1529559 199.253569,59.6155229 C198.807969,61.0504007 198.457295,62.5047136 198.276961,63.9960005 C197.586318,69.7156026 197.122162,75.4551138 196.716531,81.3787843 M24.006219,47.7530131 C25.3244603,46.3543983 26.4254928,44.8804133 27.7606255,43.6033863 C31.5081327,40.0185619 36.1454112,38.6441224 41.1723809,38.3632618 C45.0164783,38.1485279 48.841781,38.3153852 52.6233089,39.2198275 C58.389217,40.5985332 61.5847805,44.2148803 62.433156,50.0044013 C62.7293499,52.0235166 62.9201511,54.0490313 63.0712219,56.1176823 C63.3550447,55.195938 63.6314923,54.2715866 63.9238797,53.3524495 C66.5251522,45.1735986 72.2068413,40.5608481 80.5775905,39.0145741 C83.6268414,38.4511937 86.7005966,38.1625117 89.7895779,38.1520831 C96.1214662,38.1307519 102.481903,37.7230892 108.751936,38.9650383 C118.015787,40.8002314 121.835856,44.7592996 123.613257,54.0459501 C123.755525,52.5918742 123.906596,51.1385094 124.038396,49.6832484 C124.334115,46.421473 124.639349,43.1606457 124.895812,39.8957891 C124.950293,39.2001554 125.162506,38.9946649 125.885029,38.9986942 C132.149589,39.031639 138.414388,39.0418306 144.678473,38.9932429 C145.699093,38.9851844 145.715984,39.3565841 145.605595,40.1671692 C145.27776,42.5726159 145.030813,44.9889653 144.718441,47.6937598 C145.423121,46.6852687 145.942709,45.9073914 146.496318,45.1546376 C149.22154,41.4479884 152.817263,39.1662625 157.414573,38.4711028 C161.022429,37.9259725 164.602926,38.0349986 168.145119,38.8593304 C173.298418,40.0588541 176.23609,43.3348503 177.13062,48.5152475 C177.505799,50.6881843 177.629748,52.8798452 177.927369,55.1039769 C178.107227,54.602457 178.296125,54.1037813 178.46599,53.5989432 C181.824044,43.615948 188.552761,38.6104666 199.135091,38.1828948 C202.243343,38.0570408 205.307344,38.258502 208.295453,39.1615222 C212.22258,40.3484842 215.247802,42.6541485 217.23813,46.6658336 C217.513388,43.7126494 217.76438,41.0754037 218.003238,38.4369729 C218.387457,34.1927779 218.860178,29.9537971 219.122589,25.7017806 C219.620766,17.6272155 220.583813,9.59436473 221.171204,1.52975418 C221.252093,0.417688331 221.535202,0.00196720941 222.685243,0.138723816 C225.82704,0.512493604 229.013325,0.506805288 232.108967,1.27449099 C238.041886,2.74563181 240.709297,5.94720588 241.106839,12.0280161 C241.427775,16.9322929 241.00668,21.8014917 240.536338,26.6759048 C239.896131,33.3132219 239.325155,39.9569385 238.732767,46.5987589 C238.052354,54.2232359 237.380505,61.8484241 236.705326,69.4733751 C236.026578,77.1376704 235.361866,84.8033878 234.658852,92.4655499 C234.50445,94.1478695 234.441881,95.8420397 233.981769,97.4937846 C232.777485,101.819512 229.973992,104.390868 225.541076,105.094797 C221.525447,105.732363 217.473182,105.370444 213.434715,105.350772 C212.74764,105.347453 212.695776,104.975343 212.765007,104.42405 C212.990543,102.623224 213.189909,100.81908 213.391416,99.0154092 C213.458981,98.4093665 213.503708,97.8007167 213.464453,97.1553298 C212.225435,98.7646493 210.96667,100.309501 209.464289,101.641515 C206.225664,104.512456 202.342788,105.864379 198.115661,106.245259 C194.475212,106.572812 190.830242,106.490094 187.259024,105.534931 C180.580981,103.7488 176.880342,99.2460231 175.458611,92.6774397 C174.384224,87.7146207 174.589062,82.7129315 175.045843,77.706028 C175.303734,74.8770387 175.51666,72.042598 175.835931,69.2202451 C175.951316,68.1982442 175.309919,68.4542185 174.816976,68.4532704 C169.266136,68.4428418 163.71482,68.409186 158.164931,68.4769717 C156.992526,68.4914295 156.714176,68.2162572 156.840266,67.0579738 C157.065564,64.9848195 157.299426,62.907636 157.198316,60.8034329 C156.993478,56.5459651 154.740977,55.5950682 151.170948,55.716893 C147.133908,55.8545977 145.685294,57.20818 144.764595,61.2037482 C143.883626,65.0265338 143.686164,68.9355922 143.329304,72.8221344 C142.543022,81.3877908 141.794329,89.9565284 141.030649,98.5240809 C140.848412,100.567609 140.63834,102.609477 140.503685,104.656086 C140.460148,105.320434 140.240084,105.513363 139.581796,105.510993 C133.039836,105.489898 126.497639,105.482788 119.955917,105.515733 C119.039976,105.520473 119.068762,105.116129 119.133949,104.432346 C119.550286,100.075332 119.929985,95.7147637 120.324196,91.3285977 C119.848621,91.3402114 119.90215,91.711611 119.835536,91.9028807 C117.035373,99.9753126 111.06891,104.146271 102.887534,105.621441 C99.678648,106.19999 96.4476364,106.436766 93.1902171,106.369454 C88.1996471,106.266117 83.1976576,106.639649 78.2182692,106.087646 C74.0520461,105.625707 70.0192887,104.716287 66.5222973,102.227649 C63.1107144,99.7994489 61.6045268,96.2643972 60.7763734,92.3449102 C60.6169758,91.5914453 60.5063492,90.8282629 60.1654288,90.075983 C59.9810511,92.0472217 59.7900119,94.0177493 59.6139609,95.989699 C59.3577354,98.8587435 59.0722473,101.725655 58.8869179,104.599203 C58.8307719,105.469041 58.3625714,105.385376 57.7942122,105.384664 C52.4812785,105.378739 47.1683449,105.378976 41.8554112,105.383005 C40.7462899,105.383953 39.6352654,105.374947 38.5282853,105.432778 C37.8538196,105.468093 37.6470786,105.273268 37.7136925,104.577635 C38.1652395,99.8646275 38.6263028,95.1513833 38.9943446,90.4312658 C39.7216255,81.1104854 40.9497002,71.8295232 41.2485111,62.4755609 C41.2708743,61.7706837 41.197599,61.0544299 41.0883998,60.355715 C40.641611,57.497099 39.7680174,56.5101761 36.9362132,55.9603056 C34.3147187,55.4514383 31.6680061,55.3632694 29.0398501,56.0245361 C26.8323134,56.580095 25.3672836,57.9194565 24.5912317,60.0561304 C23.5834587,62.8317917 23.2439658,65.7292779 22.98322,68.6364816 C21.9109742,80.5838421 20.8637087,92.5335727 19.8088301,104.482355 C19.7669586,104.955434 19.8128746,105.455057 19.069178,105.393434 C15.0107267,105.057586 10.9137345,105.005206 7.00278533,103.647595 C2.20777469,101.982577 0.512213244,98.2173859 0.102299905,93.5778528 C-0.233386527,89.7752133 0.338065499,86.011681 0.652102415,82.2415123 C1.21213492,75.5176853 1.86399943,68.8014428 2.46352445,62.080697 C3.11895756,54.7313922 3.76891881,47.3816134 4.388428,40.0294645 C4.44766678,39.3276685 4.73577187,39.2032365 5.35361571,39.2051327 C11.578446,39.2212495 17.8032762,39.2269379 24.0281064,39.1989703 C24.7656174,39.1956521 24.9780681,39.3632204 24.8805263,40.1192925 C24.552215,42.6591258 24.2924208,45.2077285 24.006219,47.7530131" id="Fill-1" fill="#B7061A" mask="url(#mask-2)"></path>
                    </g>
                    <path d="M193.653595,32.6825518 C193.30219,38.2031212 193.948916,38.9056258 197.770821,38.8946005 C197.928421,38.8943608 198.086257,38.8977164 198.24362,38.8934021 C200.808515,38.8222169 201.68951,38.0820824 202.111905,35.5009591 C202.646702,32.2326709 202.898956,28.9293892 203.046854,25.6256281 C203.238055,21.3578706 202.490996,20.6738214 198.264207,20.9132626 C195.802011,21.0525172 194.987274,21.7382441 194.53104,24.200965 C193.912237,27.5399592 193.81498,30.934799 193.653595,32.6825518 M196.773874,46.6763192 C194.687693,46.7904073 192.602458,46.8388228 190.530002,46.4773841 C185.650571,45.626517 183.287999,43.2678176 183.030302,38.2862905 C182.73924,32.6571457 183.265992,27.0409436 184.485613,21.5369122 C185.562542,16.6783414 188.685662,13.9265654 193.58568,13.3158585 C197.627893,12.8120493 201.696373,12.7140199 205.717289,13.3077094 C211.208896,14.11831 213.328917,16.6308846 213.672039,22.242293 C213.860637,25.325308 213.360863,28.3694947 213.136059,31.4285416 C212.984138,33.4948303 212.783708,35.5565651 212.315169,37.585224 C210.959955,43.4542893 207.70645,46.2877965 201.731632,46.6605003 C200.084883,46.763563 198.426539,46.6763192 196.773874,46.6763192" id="Fill-4" fill="#4D4D4D"></path>
                    <path d="M163.616508,39.6259771 C164.426702,39.5688851 165.24483,39.5645853 166.045223,39.4410849 C167.046065,39.2862913 167.736784,38.6697449 168.026839,37.665498 C168.35913,36.5143405 168.407434,35.3187516 168.341629,34.1341511 C168.281424,33.0489242 167.639243,32.4041901 166.588931,32.2271808 C165.088018,31.9749247 163.571705,31.9816133 162.077559,32.2013819 C160.522043,32.4302279 159.807756,33.2904308 159.604041,34.8954582 C159.083902,38.9922314 159.584906,39.577007 163.616508,39.6259771 M168.998045,28.5878607 C169.19756,26.1453239 169.42671,23.9813199 169.533585,21.8106272 C169.603357,20.3912088 168.905171,19.6867549 167.495732,19.6134191 C166.48859,19.5608657 165.475614,19.5923977 164.466605,19.623452 C163.282816,19.6600005 162.310677,20.0522396 162.066825,21.4076385 C161.977218,21.9083287 161.662195,21.90379 161.298168,21.899968 C158.384782,21.8696303 155.471164,21.8213768 152.557546,21.8283043 C151.650978,21.8304542 151.913497,21.2461564 151.972768,20.7882255 C152.495708,16.7480666 154.651869,14.2157113 158.738076,13.5282178 C163.660611,12.6995469 168.653386,12.6446048 173.570788,13.6345189 C177.647427,14.4553069 179.432561,16.759055 179.681546,21.014205 C179.840224,23.7293026 179.372589,26.4076129 179.167941,29.0993004 C178.772411,34.2899001 178.271173,39.4719002 177.830607,44.6591557 C177.688263,46.3360856 177.712065,46.3384744 176.122946,46.3384744 C173.674395,46.3387133 171.224678,46.2961928 168.777762,46.3592568 C167.802822,46.384578 167.285716,46.2214237 167.55897,45.076716 C167.648344,44.7021539 167.572971,44.2865046 167.572971,43.8816048 C167.527701,43.871333 167.420827,43.8178242 167.394458,43.8452952 C165.233163,46.1110617 162.551495,46.8764297 159.541269,46.7457629 C158.222604,46.6881931 156.894371,46.7737117 155.582239,46.6557056 C151.425561,46.2818601 149.108154,43.798475 148.96581,39.5120319 C148.894404,37.3661827 149.103487,35.2129282 149.50205,33.1076884 C150.249939,29.1575869 152.70619,26.8688881 156.495107,26.0650606 C159.105136,25.5115781 161.756235,25.5679535 164.383299,25.8902012 C166.120829,26.1035201 167.633876,26.9171416 168.998045,28.5878607" id="Fill-6" fill="#4D4D4D"></path>
                    <path d="M97.2091548,39.4681865 L97.2091548,39.5087534 C97.7135271,39.5087534 98.2183661,39.5261733 98.7218049,39.5056512 C100.713387,39.4240401 101.575324,38.5995766 101.821326,36.5609682 C102.29699,32.6152361 101.787016,32.0277313 97.8867081,32.0277313 C93.9121797,32.0277313 93.2761711,32.6410081 93.0224679,36.7194179 C92.9200063,38.3661973 93.6339697,39.2813399 95.2346107,39.456255 C95.8857901,39.5276051 96.5505066,39.4681865 97.2091548,39.4681865 M102.612077,28.4666693 C102.809064,26.0911166 103.041062,23.9341483 103.148425,21.7707369 C103.219144,20.3451667 102.532255,19.6502787 101.11133,19.5746333 C100.065008,19.5187941 99.0116847,19.540748 97.9639627,19.5910987 C96.8350183,19.6457448 95.8911583,20.02779 95.6892693,21.353136 C95.5994112,21.9446975 95.166692,21.8487686 94.7958231,21.8461437 C91.9189638,21.8256216 89.0423379,21.7747936 86.1654786,21.7817138 C85.4454469,21.7833842 85.4603843,21.4769845 85.5462747,20.9071382 C86.2112245,16.4867728 88.4457735,14.0372452 92.7643301,13.3977192 C97.3230528,12.7228761 101.92192,12.7369552 106.477375,13.4175254 C111.329945,14.1424806 113.666489,17.1682975 113.294687,22.3780479 C112.743635,30.1039035 111.993962,37.8147255 111.350018,45.5341381 C111.302404,46.1044616 111.094681,46.2748428 110.562767,46.2719792 C107.645764,46.2550366 104.728293,46.2440596 101.811523,46.2791381 C101.132802,46.2872515 101.019138,46.0137826 101.108296,45.4269936 C101.196053,44.8499885 101.235264,44.2651085 101.324655,43.4067597 C99.8316106,44.9778937 98.3222281,46.0825077 96.4209709,46.3936801 C93.6026944,46.8554274 90.7489415,46.9043463 87.9491034,46.4029866 C84.879691,45.8529465 82.9343217,43.578334 82.664514,40.4179303 C82.4334503,37.7135467 82.6299711,34.9993794 83.2715813,32.3684936 C84.1409875,28.8040908 86.5585202,26.7905385 89.9875984,26.0350388 C92.633394,25.4523066 95.3272696,25.5162592 97.996405,25.8369767 C99.7685933,26.0498338 101.281243,26.9306138 102.612077,28.4666693" id="Fill-8" fill="#4D4D4D"></path>
                    <path d="M33.3940406,17.5276495 C33.5407496,17.4100953 33.6352125,17.3573652 33.7007534,17.2787539 C37.1842184,13.098082 43.3196415,11.7212952 48.2046559,13.9739333 C50.2702445,14.9262189 51.2011121,16.6394623 51.5631033,18.8330814 C52.0480128,21.7721779 51.7088793,24.6972453 51.4630426,27.6225546 C50.9608732,33.5970162 50.415554,39.5673659 49.9467382,45.5442463 C49.8748998,46.4604917 49.657985,46.7812259 48.727817,46.758731 C46.0098514,46.69173 43.2890869,46.7118061 40.5701883,46.7502652 C39.852037,46.7604242 39.6500497,46.5809484 39.719789,45.8033009 C40.2935636,39.3910346 40.823722,32.9744144 41.3664755,26.5592455 C41.3835021,26.358968 41.4163892,26.155788 41.400762,25.9576874 C41.293704,24.5997673 41.7422278,22.9044231 40.1398573,22.2513443 C38.2573635,21.4843395 36.2531175,21.3571101 34.4482931,22.5940897 C33.5064631,23.2394283 33.3058752,24.3910239 33.1276786,25.4596543 C32.4846312,29.3128193 32.3691765,33.2245194 31.9866601,37.1067101 C31.6986066,40.0293587 31.4665311,42.9587799 31.2596457,45.8886849 C31.209732,46.5930425 30.9349732,46.7507489 30.3180489,46.7454276 C27.482063,46.7207557 24.6458438,46.7118061 21.8100911,46.7500233 C21.0807443,46.7599404 21.0054072,46.4716182 21.0627847,45.8202326 C21.9824567,35.3583939 22.8906999,24.8953459 23.7648899,14.4293953 C23.8276319,13.6788384 24.0662381,13.4892037 24.7447383,13.4971857 C27.4249188,13.5283884 30.1060322,13.5380636 32.7859794,13.49259 C33.5696716,13.4795284 33.6788287,13.7896199 33.6139875,14.494945 C33.5244227,15.4711769 33.2331038,16.4391848 33.3940406,17.5276495" id="Fill-10" fill="#4D4D4D"></path>
                    <path d="M129.723931,46.750019 C126.439041,46.7495397 123.569955,46.8906984 120.766765,46.117561 C116.6686,44.9875725 114.526705,41.8056305 115.022559,37.6878231 C115.102611,37.0225319 115.311672,36.8245742 115.946514,36.831045 C118.885211,36.8612419 121.824139,36.8574074 124.762836,36.8336812 C125.336189,36.8291277 125.535737,37.0069541 125.643168,37.6154463 C125.931585,39.2470394 126.530926,39.7711719 128.120119,39.9478 C129.584943,40.1107676 131.0558,40.1126849 132.51575,39.9094547 C134.606599,39.6187493 135.86793,37.190772 134.984812,35.2013692 C134.60103,34.3364427 133.821168,34.0759342 133.011141,33.9115287 C130.31283,33.3634304 127.56208,33.2898553 124.837086,32.9809359 C122.355494,32.6995771 120.061385,32.0086425 118.290278,30.0621385 C117.162366,28.8231056 116.545623,27.355918 116.510818,25.6382876 C116.478101,24.0352139 116.608736,22.4374126 116.863972,20.8674116 C117.420619,17.4465304 119.445802,15.2531784 122.531607,14.0472183 C124.356082,13.3339955 126.263856,13.0118948 128.203883,13.0020689 C131.947734,12.9826565 135.710611,12.6363504 139.424994,13.3351938 C142.328421,13.8816145 144.672417,15.2447904 145.442767,18.5010265 C145.451816,18.5396115 145.471075,18.5762792 145.476411,18.6153435 C145.635122,19.8035689 145.967393,21.1794466 145.376637,22.1143533 C144.978237,22.7444147 143.635463,22.2861883 142.717308,22.3005677 C140.668226,22.3326819 138.618215,22.2909814 136.569133,22.3218973 C135.917121,22.3317233 135.494589,22.2559913 135.387389,21.4389965 C135.255827,20.4341096 134.493599,19.9902626 133.608857,19.8018912 C132.037531,19.4673284 130.451122,19.4721216 128.88722,19.8167501 C127.118434,20.2061946 126.045745,22.473601 126.796836,24.1840416 C127.158111,25.0072676 127.918251,25.2414136 128.708091,25.3291285 C131.589011,25.6493119 134.472716,25.9438518 137.353868,26.2609197 C138.936565,26.4349115 140.478191,26.7989523 141.924684,27.5011509 C144.487255,28.7447373 145.748818,31.096743 145.450656,34.0212922 C145.300995,35.488959 145.26619,36.9808314 144.980789,38.4197393 C144.061939,43.0501755 140.228988,46.210069 135.208028,46.6395366 C133.237837,46.8082559 131.267182,46.7152686 129.723931,46.750019" id="Fill-12" fill="#4D4D4D"></path>
                    <path d="M68.3629159,38.0205945 C70.2316087,32.5516457 72.1000613,27.0824625 73.969715,21.6137481 C74.6776514,19.5429083 75.4098504,17.4793353 76.0843959,15.3981812 C76.2787361,14.7980736 76.5170371,14.5113816 77.23194,14.5207583 C80.3526738,14.5624845 83.4746087,14.5603748 86.5955827,14.5252122 C87.4798426,14.5153667 87.5773731,14.7392349 87.2701282,15.5224222 C83.3014081,25.6365784 79.3574309,35.7598769 75.433152,45.8904423 C75.1806779,46.5425904 74.8513325,46.7596605 74.1407536,46.7547378 C69.6190407,46.7228571 65.0963669,46.7153557 60.5748942,46.7596605 C59.7509302,46.7676307 59.4898081,46.4919563 59.3478364,45.7500265 C57.418127,35.6712672 55.4778479,25.5943833 53.4825577,15.5282826 C53.292061,14.5681105 53.6062724,14.5174765 54.3951639,14.525681 C57.436384,14.5573273 60.4788051,14.5810035 63.5185839,14.5125537 C64.4225421,14.4923938 64.670452,14.8163581 64.7828762,15.5981389 C65.7485717,22.3186401 66.7428537,29.0349217 67.7311301,35.7521411 C67.8423532,36.5071983 67.9682299,37.2601457 68.0876206,38.0140308 C68.1791455,38.0159062 68.2709106,38.0182503 68.3629159,38.0205945" id="Fill-14" fill="#4D4D4D"></path>
                    <path d="M11.5715395,46.7403653 C10.1084801,46.7403653 8.64518957,46.7277032 7.1821302,46.7469309 C6.67001318,46.7537309 6.42724891,46.6662683 6.48435631,46.0352715 C7.11623704,39.042954 7.71898606,32.0478227 8.32959601,25.0536293 C8.60426645,21.9054451 8.89974526,18.7589022 9.13765425,15.6079041 C9.19314323,14.8704515 9.32724159,14.4962148 10.1831591,14.5121597 C12.9929822,14.5642152 15.8046549,14.5527254 18.6149404,14.5175528 C19.3661224,14.507939 19.4780252,14.7452369 19.4125944,15.4751861 C18.5078929,25.576529 17.6337103,35.6806857 16.7812609,45.7867183 C16.7176798,46.5410538 16.4756091,46.7884346 15.7292824,46.7572482 C14.345526,46.6990961 12.9576079,46.7405998 11.5715395,46.7403653" id="Fill-16" fill="#4D4D4D"></path>
                    <path d="M160.356544,7.99850238 C158.413979,7.99828108 158.407047,7.99584686 159.04232,6.38483009 C159.231816,5.90440188 159.45043,5.43216152 159.688224,4.97164973 C161.444067,1.5721388 164.069741,0.469875817 167.861741,1.52035612 C169.076826,1.85694355 170.284748,2.23557675 171.520631,2.48099125 C172.735717,2.72242247 173.847041,2.30462032 174.303912,1.20169346 C174.779962,0.0527375471 175.560362,-0.034230803 176.630321,0.00803625776 C178.327235,0.0746456048 178.328853,0.0257397387 177.738411,1.58298218 C177.263747,2.83506087 176.676078,4.03048842 175.783598,5.06525688 C174.201075,6.8995588 172.183405,7.48687178 169.793907,6.92390109 C168.302897,6.57248699 166.830606,6.1456118 165.333587,5.82230198 C164.191527,5.57555972 163.076967,5.82540009 162.529278,6.85684915 C161.983206,7.88542139 161.266587,8.21581261 160.356544,7.99850238" id="Fill-18" fill="#4D4D4D"></path>
                    <path d="M14.9562848,8.04110946 C13.4740098,8.04110946 11.9895087,7.99436906 10.5102017,8.05851787 C9.60743114,8.09786565 9.60990449,7.80907677 9.85179753,7.11107094 C11.2489895,3.07708849 14.2345631,0.92703022 18.4795633,0.223539548 C21.1668516,-0.221686583 21.1777343,-0.225025183 20.9665107,2.36072036 C20.8341868,3.98184904 20.6177692,5.5972544 20.5247715,7.2198139 C20.4839613,7.93212802 20.1698466,8.06519507 19.5262825,8.0516022 C18.0034446,8.01940856 16.4796174,8.04110946 14.9562848,8.04110946" id="Fill-20" fill="#4D4D4D"></path>
                </g>
            </g>
        </g>
    </g>
</svg>