<?xml version="1.0" encoding="UTF-8"?>
<svg width="50px" height="50px" viewBox="0 0 50 50" version="1.1" xmlns="http://www.w3.org/2000/svg" xmlns:xlink="http://www.w3.org/1999/xlink">
    <!-- Generator: Sketch 50.2 (55047) - http://www.bohemiancoding.com/sketch -->
    <title>tiwtter</title>
    <desc>Created with Sketch.</desc>
    <defs></defs>
    <g id="Page-1" stroke="none" stroke-width="1" fill="none" fill-rule="evenodd">
        <g id="Desktop-HD" transform="translate(-695.000000, -380.000000)" fill="#46ADE9">
            <g id="tiwtter" transform="translate(695.000000, 380.000000)">
                <path d="M-4.07965217e-09,3.66430099e-08 L50,1.13686838e-13 L50,50 L2.36847579e-14,50 L2.36847579e-14,40.625 L-4.07965217e-09,3.66430099e-08 Z M8.33333333,36.5234375 C11.5451549,38.5633783 15.0390436,39.5833333 18.8151042,39.5833333 C21.2456719,39.5833333 23.5242949,39.1981375 25.6510417,38.4277344 C27.7777884,37.6573312 29.6006868,36.6265256 31.1197917,35.3352865 C32.6388965,34.0440474 33.9463921,32.5575171 35.0423177,30.875651 C36.1382433,29.193785 36.9520373,27.4359901 37.483724,25.6022135 C38.0154106,23.768437 38.28125,21.9401133 38.28125,20.1171875 C38.28125,19.7265605 38.2703994,19.4335947 38.2486979,19.2382812 C39.6158923,18.2617139 40.7552038,17.079 41.6666667,15.6901042 C40.4513828,16.2326416 39.1384619,16.6015615 37.7278646,16.796875 C39.2035664,15.9288151 40.2126709,14.6592965 40.7552083,12.9882813 C39.344611,13.8129382 37.8906325,14.366318 36.3932292,14.6484375 C35.0694378,13.2161387 33.4092982,12.5 31.4127604,12.5 C29.5247301,12.5 27.9134181,13.167311 26.578776,14.5019531 C25.244134,15.8365952 24.5768229,17.4479072 24.5768229,19.3359375 C24.5768229,19.9652809 24.6310758,20.486109 24.7395833,20.8984375 C21.9400902,20.746527 19.3142484,20.0412389 16.8619792,18.7825521 C14.40971,17.5238652 12.3263975,15.8420244 10.6119792,13.7369792 C9.98263574,14.822054 9.66796875,15.9722161 9.66796875,17.1875 C9.66796875,19.6614707 10.6553721,21.5603232 12.6302083,22.8841146 C11.610238,22.8624131 10.5251794,22.5802979 9.375,22.0377604 L9.375,22.1028646 C9.375,23.7304769 9.9175293,25.1790301 11.0026042,26.4485677 C12.087679,27.7181053 13.4223011,28.5047728 15.0065104,28.8085938 C14.377167,28.9822057 13.8237871,29.0690104 13.3463542,29.0690104 C13.0642347,29.0690104 12.6410618,29.0256081 12.0768229,28.9388021 C12.5325544,30.3059964 13.340923,31.4344574 14.5019531,32.3242188 C15.6629832,33.2139801 16.9813294,33.6697048 18.4570313,33.6914063 C15.9396576,35.644541 13.1076546,36.6210938 9.9609375,36.6210938 C9.39669857,36.6210938 8.85416927,36.588542 8.33333333,36.5234375 Z"></path>
            </g>
        </g>
    </g>
</svg>